<svg width="79" height="79" viewBox="0 0 79 79" fill="none" xmlns="http://www.w3.org/2000/svg">
<circle cx="39.5" cy="39.5" r="39.5" fill="#F2F5C8"/>
<path d="M38.9934 59C36.036 58.9981 33.1157 58.3572 30.4429 57.1233C27.7701 55.8894 25.4112 54.0933 23.5359 51.8643C21.6607 49.6353 20.3158 47.0288 19.5981 44.2324C18.8804 41.436 18.8076 38.5193 19.3851 35.6922C19.9626 32.8652 21.176 30.198 22.9379 27.8829C24.6998 25.5677 26.9664 23.662 29.5746 22.303C32.1828 20.9441 35.0676 20.1656 38.0215 20.0237C40.9753 19.8817 43.9247 20.3798 46.6574 21.4822C46.7383 21.5148 46.8118 21.5627 46.8737 21.6231C46.9356 21.6835 46.9848 21.7551 47.0183 21.834C47.0518 21.9129 47.069 21.9974 47.069 22.0828C47.069 22.1681 47.0517 22.2526 47.0182 22.3315C46.9847 22.4103 46.9355 22.482 46.8736 22.5423C46.8117 22.6027 46.7381 22.6506 46.6572 22.6832C46.5763 22.7159 46.4896 22.7327 46.402 22.7327C46.3144 22.7327 46.2277 22.7158 46.1468 22.6832C42.1961 21.0896 37.8036 20.8674 33.7049 22.0538C29.6062 23.2403 26.0501 25.7632 23.6321 29.2002C21.2142 32.6372 20.0812 36.7796 20.4229 40.9336C20.7646 45.0877 22.5603 49.0012 25.5091 52.0188C28.458 55.0364 32.3811 56.9749 36.6214 57.5097C40.8617 58.0445 45.1617 57.143 48.8015 54.9563C52.4412 52.7696 55.1997 49.4305 56.6149 45.498C58.0301 41.5655 58.0162 37.2785 56.5754 33.3549C56.5455 33.2744 56.5322 33.1891 56.5363 33.1036C56.5403 33.0182 56.5616 32.9344 56.5989 32.857C56.6363 32.7796 56.6889 32.7101 56.7538 32.6526C56.8187 32.5951 56.8947 32.5506 56.9773 32.5217C57.0598 32.4928 57.1475 32.4801 57.2351 32.4842C57.3227 32.4884 57.4087 32.5094 57.488 32.546C57.5673 32.5826 57.6384 32.6341 57.6973 32.6975C57.7561 32.7609 57.8016 32.835 57.831 32.9156C58.9111 35.8596 59.2496 39.0135 58.8179 42.1116C58.3863 45.2098 57.1973 48.1615 55.3509 50.7182C53.5045 53.2749 51.0548 55.3617 48.2081 56.803C45.3615 58.2443 42.2012 58.9978 38.9934 59V59Z" fill="black"/>
<path d="M53.3333 35.0182C51.6192 35.0182 49.9436 34.5191 48.5184 33.5841C47.0932 32.6492 45.9823 31.3202 45.3264 29.7654C44.6704 28.2105 44.4988 26.4997 44.8332 24.8491C45.1676 23.1985 45.993 21.6823 47.2051 20.4923C48.4171 19.3022 49.9614 18.4918 51.6426 18.1635C53.3237 17.8352 55.0663 18.0037 56.6499 18.6477C58.2335 19.2918 59.5871 20.3824 60.5394 21.7817C61.4917 23.181 62 24.8262 62 26.5091C61.9973 28.765 61.0834 30.9278 59.4587 32.523C57.8339 34.1182 55.6311 35.0156 53.3333 35.0182ZM53.3333 19.3091C51.8829 19.3091 50.4651 19.7314 49.2592 20.5225C48.0532 21.3137 47.1133 22.4381 46.5582 23.7538C46.0032 25.0694 45.858 26.5171 46.1409 27.9137C46.4239 29.3104 47.1223 30.5933 48.1479 31.6003C49.1735 32.6072 50.4801 33.2929 51.9027 33.5707C53.3252 33.8486 54.7997 33.706 56.1397 33.161C57.4797 32.6161 58.625 31.6932 59.4308 30.5092C60.2366 29.3252 60.6667 27.9331 60.6667 26.5091C60.6645 24.6002 59.8911 22.7701 58.5164 21.4203C57.1416 20.0705 55.2776 19.3113 53.3333 19.3091V19.3091ZM39.3333 54C37.0918 54 34.9006 53.3474 33.0369 52.1247C31.1731 50.902 29.7205 49.1642 28.8627 47.131C28.0049 45.0977 27.7805 42.8604 28.2178 40.7019C28.6551 38.5434 29.7345 36.5607 31.3195 35.0046C32.9045 33.4484 34.9239 32.3886 37.1223 31.9593C39.3208 31.5299 41.5995 31.7503 43.6704 32.5925C45.7413 33.4347 47.5113 34.8609 48.7567 36.6907C50.002 38.5206 50.6667 40.672 50.6667 42.8727C50.6633 45.8229 49.4682 48.6512 47.3435 50.7373C45.2188 52.8233 42.3381 53.9967 39.3333 54V54ZM39.3333 33.0545C37.3555 33.0545 35.4221 33.6304 33.7776 34.7092C32.1331 35.788 30.8514 37.3214 30.0945 39.1155C29.3377 40.9095 29.1396 42.8836 29.5255 44.7882C29.9113 46.6927 30.8637 48.4421 32.2623 49.8152C33.6608 51.1883 35.4426 52.1234 37.3824 52.5023C39.3222 52.8811 41.3329 52.6867 43.1602 51.9435C44.9874 51.2004 46.5492 49.942 47.648 48.3274C48.7468 46.7128 49.3333 44.8146 49.3333 42.8727C49.3304 40.2697 48.2759 37.774 46.4012 35.9334C44.5265 34.0927 41.9846 33.0574 39.3333 33.0545V33.0545Z" fill="black"/>
<path d="M28.5 44C28.4343 44 28.3693 43.9832 28.3086 43.9503C28.2479 43.9175 28.1928 43.8693 28.1464 43.8086C28.0999 43.7479 28.0631 43.6758 28.038 43.5964C28.0129 43.5171 28 43.432 28 43.3462V27.6538C28 27.4804 28.0527 27.3141 28.1464 27.1915C28.2402 27.0689 28.3674 27 28.5 27C28.6326 27 28.7598 27.0689 28.8536 27.1915C28.9473 27.3141 29 27.4804 29 27.6538V43.3462C29 43.432 28.9871 43.5171 28.962 43.5964C28.9369 43.6758 28.9001 43.7479 28.8536 43.8086C28.8072 43.8693 28.7521 43.9175 28.6914 43.9503C28.6307 43.9832 28.5657 44 28.5 44V44Z" fill="black"/>
<path d="M39.0001 33.5389C38.8998 33.5388 38.801 33.5152 38.7113 33.47L28.3591 28.2394C28.2829 28.2012 28.2149 28.1481 28.159 28.0832C28.1031 28.0183 28.0605 27.943 28.0334 27.8614C28.0064 27.7799 27.9956 27.6937 28.0016 27.6079C28.0076 27.5221 28.0303 27.4384 28.0683 27.3615C28.1064 27.2845 28.1591 27.216 28.2234 27.1597C28.2877 27.1033 28.3624 27.0604 28.4432 27.0333C28.524 27.0062 28.6092 26.9955 28.6941 27.0017C28.779 27.008 28.8618 27.0311 28.9379 27.0697L39.2901 32.3003C39.4206 32.3661 39.5252 32.4746 39.587 32.6081C39.6487 32.7416 39.6641 32.8923 39.6305 33.0357C39.5969 33.1791 39.5164 33.3068 39.402 33.3982C39.2875 33.4895 39.1459 33.5391 39.0001 33.5389V33.5389ZM49.353 44C49.268 44 49.1838 43.9832 49.1053 43.9503C49.0268 43.9175 48.9555 43.8693 48.8954 43.8086C48.8353 43.7479 48.7876 43.6758 48.7551 43.5964C48.7226 43.5171 48.7059 43.4321 48.706 43.3462V34.1928C48.706 34.0194 48.7741 33.853 48.8955 33.7304C49.0168 33.6078 49.1814 33.5389 49.353 33.5389C49.5246 33.5389 49.6892 33.6078 49.8105 33.7304C49.9318 33.853 50 34.0194 50 34.1928V43.3462C50 43.4321 49.9833 43.5171 49.9508 43.5964C49.9183 43.6758 49.8707 43.7479 49.8106 43.8086C49.7505 43.8693 49.6792 43.9175 49.6006 43.9503C49.5221 43.9832 49.438 44 49.353 44V44Z" fill="black"/>
<path d="M39.0007 33.0249C38.847 33.0251 38.6978 32.9766 38.5772 32.8873C38.4566 32.798 38.3717 32.6732 38.3363 32.533C38.301 32.3929 38.3171 32.2456 38.3822 32.1151C38.4474 31.9847 38.5576 31.8787 38.6951 31.8143L45.3308 28.7047C45.4926 28.6289 45.6798 28.6165 45.8514 28.6701C46.023 28.7237 46.1648 28.8389 46.2457 28.9905C46.3265 29.1421 46.3399 29.3177 46.2827 29.4784C46.2255 29.6392 46.1025 29.7722 45.9407 29.848L39.305 32.9575C39.2105 33.0017 39.1063 33.0248 39.0007 33.0249V33.0249ZM35.5909 45.166H24.6818C24.501 45.166 24.3276 45.0987 24.1997 44.9788C24.0718 44.859 24 44.6964 24 44.527C24 44.3575 24.0718 44.195 24.1997 44.0751C24.3276 43.9553 24.501 43.888 24.6818 43.888H35.5909C35.7717 43.888 35.9452 43.9553 36.073 44.0751C36.2009 44.195 36.2727 44.3575 36.2727 44.527C36.2727 44.6964 36.2009 44.859 36.073 44.9788C35.9452 45.0987 35.7717 45.166 35.5909 45.166ZM35.5909 47.083H26.0455C25.8646 47.083 25.6912 47.0157 25.5633 46.8958C25.4355 46.776 25.3636 46.6135 25.3636 46.444C25.3636 46.2745 25.4355 46.112 25.5633 45.9921C25.6912 45.8723 25.8646 45.805 26.0455 45.805H35.5909C35.7717 45.805 35.9452 45.8723 36.073 45.9921C36.2009 46.112 36.2727 46.2745 36.2727 46.444C36.2727 46.6135 36.2009 46.776 36.073 46.8958C35.9452 47.0157 35.7717 47.083 35.5909 47.083ZM35.5909 49H27.4091C27.2283 49 27.0548 48.9327 26.927 48.8128C26.7991 48.693 26.7273 48.5305 26.7273 48.361C26.7273 48.1915 26.7991 48.029 26.927 47.9092C27.0548 47.7893 27.2283 47.722 27.4091 47.722H35.5909C35.7717 47.722 35.9452 47.7893 36.073 47.9092C36.2009 48.029 36.2727 48.1915 36.2727 48.361C36.2727 48.5305 36.2009 48.693 36.073 48.8128C35.9452 48.9327 35.7717 49 35.5909 49ZM53.3182 45.166H42.4091C42.2283 45.166 42.0548 45.0987 41.927 44.9788C41.7991 44.859 41.7273 44.6964 41.7273 44.527C41.7273 44.3575 41.7991 44.195 41.927 44.0751C42.0548 43.9553 42.2283 43.888 42.4091 43.888H53.3182C53.499 43.888 53.6724 43.9553 53.8003 44.0751C53.9282 44.195 54 44.3575 54 44.527C54 44.6964 53.9282 44.859 53.8003 44.9788C53.6724 45.0987 53.499 45.166 53.3182 45.166ZM51.9545 47.083H42.4091C42.2283 47.083 42.0548 47.0157 41.927 46.8958C41.7991 46.776 41.7273 46.6135 41.7273 46.444C41.7273 46.2745 41.7991 46.112 41.927 45.9921C42.0548 45.8723 42.2283 45.805 42.4091 45.805H51.9545C52.1354 45.805 52.3088 45.8723 52.4367 45.9921C52.5645 46.112 52.6364 46.2745 52.6364 46.444C52.6364 46.6135 52.5645 46.776 52.4367 46.8958C52.3088 47.0157 52.1354 47.083 51.9545 47.083ZM50.5909 49H42.4091C42.2283 49 42.0548 48.9327 41.927 48.8128C41.7991 48.693 41.7273 48.5305 41.7273 48.361C41.7273 48.1915 41.7991 48.029 41.927 47.9092C42.0548 47.7893 42.2283 47.722 42.4091 47.722H50.5909C50.7717 47.722 50.9452 47.7893 51.073 47.9092C51.2009 48.029 51.2727 48.1915 51.2727 48.361C51.2727 48.5305 51.2009 48.693 51.073 48.8128C50.9452 48.9327 50.7717 49 50.5909 49ZM51.9545 29.8299C51.865 29.83 51.7763 29.8135 51.6936 29.7813C51.6109 29.7492 51.5357 29.7021 51.4725 29.6426L48.7452 27.0866C48.6193 26.9664 48.5491 26.8045 48.5499 26.636C48.5507 26.4676 48.6225 26.3063 48.7496 26.1871C48.8767 26.068 49.0488 26.0008 49.2286 26C49.4083 25.9992 49.5811 26.065 49.7093 26.1831L52.4366 28.7391C52.5319 28.8284 52.5968 28.9423 52.6231 29.0662C52.6494 29.1902 52.6359 29.3186 52.5843 29.4354C52.5327 29.5521 52.4454 29.6519 52.3333 29.7221C52.2212 29.7923 52.0894 29.8298 51.9545 29.8299Z" fill="black"/>
<path d="M51.6994 30C51.5611 30 51.4259 29.9648 51.3108 29.8989C51.1958 29.833 51.1062 29.7394 51.0532 29.6298C51.0003 29.5203 50.9865 29.3997 51.0134 29.2834C51.0404 29.1671 51.107 29.0603 51.2048 28.9764L56.8014 24.1795C56.8662 24.123 56.9433 24.078 57.0284 24.0472C57.1136 24.0164 57.2049 24.0004 57.2973 24C57.3897 23.9996 57.4813 24.015 57.5667 24.0451C57.6522 24.0753 57.7298 24.1196 57.7951 24.1756C57.8605 24.2316 57.9122 24.2981 57.9474 24.3714C57.9825 24.4446 58.0004 24.5231 58 24.6023C57.9996 24.6815 57.9809 24.7598 57.9449 24.8328C57.909 24.9057 57.8565 24.9718 57.7906 25.0273L52.194 29.8243C52.1292 29.8801 52.0521 29.9243 51.9672 29.9545C51.8823 29.9846 51.7913 30.0001 51.6994 30Z" fill="black"/>
</svg>
