<svg width="13" height="11" viewBox="0 0 13 11" fill="none" xmlns="http://www.w3.org/2000/svg">
<path d="M13 4.35405C13 4.67131 12.9047 4.98146 12.7261 5.24525C12.5476 5.50905 12.2938 5.71465 11.9969 5.83607C11.6999 5.95748 11.3732 5.98925 11.058 5.92735C10.7428 5.86545 10.4532 5.71268 10.226 5.48834C9.99869 5.26399 9.84392 4.97817 9.78122 4.667C9.71852 4.35583 9.7507 4.03329 9.8737 3.74018C9.99669 3.44706 10.205 3.19653 10.4722 3.02027C10.7394 2.84401 11.0536 2.74993 11.375 2.74993C11.8058 2.7504 12.2189 2.91956 12.5235 3.22029C12.8282 3.52102 12.9995 3.92876 13 4.35405V4.35405ZM3.25 4.35405C3.25 4.03678 3.1547 3.72664 2.97614 3.46285C2.79758 3.19905 2.54379 2.99344 2.24686 2.87203C1.94993 2.75062 1.6232 2.71885 1.30798 2.78075C0.99276 2.84264 0.703212 2.99542 0.475952 3.21976C0.248692 3.4441 0.0939256 3.72993 0.0312246 4.0411C-0.0314763 4.35227 0.000704085 4.67481 0.123696 4.96792C0.246689 5.26104 0.454969 5.51157 0.722199 5.68783C0.989429 5.86409 1.30361 5.95817 1.625 5.95817C2.05583 5.9577 2.46887 5.78854 2.77352 5.48781C3.07816 5.18708 3.24952 4.77934 3.25 4.35405V4.35405ZM4.41071 3.20825C4.73211 3.20825 5.04629 3.11417 5.31352 2.9379C5.58075 2.76164 5.78903 2.51111 5.91202 2.218C6.03501 1.92488 6.06719 1.60234 6.00449 1.29117C5.94179 0.980006 5.78702 0.694178 5.55976 0.469838C5.3325 0.245497 5.04296 0.0927189 4.72774 0.0308235C4.41252 -0.0310719 4.08578 0.00069504 3.78885 0.122107C3.49192 0.24352 3.23813 0.449124 3.05958 0.712921C2.88102 0.976718 2.78571 1.28686 2.78571 1.60412C2.7862 2.02942 2.95756 2.43716 3.2622 2.73788C3.56684 3.03861 3.97989 3.20777 4.41071 3.20825V3.20825ZM8.58929 3.20825C8.91068 3.20825 9.22486 3.11417 9.49209 2.9379C9.75932 2.76164 9.9676 2.51111 10.0906 2.218C10.2136 1.92488 10.2458 1.60234 10.1831 1.29117C10.1204 0.980006 9.96559 0.694178 9.73833 0.469838C9.51107 0.245497 9.22153 0.0927189 8.90631 0.0308235C8.59109 -0.0310719 8.26436 0.00069504 7.96743 0.122107C7.6705 0.24352 7.41671 0.449124 7.23815 0.712921C7.05959 0.976718 6.96429 1.28686 6.96429 1.60412C6.96477 2.02942 7.13613 2.43716 7.44077 2.73788C7.74541 3.03861 8.15846 3.20777 8.58929 3.20825V3.20825ZM9.92943 6.69405C9.45409 6.4344 9.10255 5.99914 8.95201 5.48385C8.79772 4.95973 8.47527 4.4992 8.03311 4.17149C7.59096 3.84378 7.053 3.6666 6.5001 3.66657C5.94719 3.66654 5.40921 3.84367 4.96702 4.17134C4.52484 4.499 4.20233 4.95949 4.04799 5.4836C3.89807 5.99821 3.54741 6.43307 3.073 6.69271C2.54909 6.97308 2.15444 7.44158 1.97075 8.00123C1.78706 8.56088 1.8284 9.16883 2.08621 9.69922C2.34402 10.2296 2.79856 10.6419 3.35573 10.8506C3.91291 11.0593 4.53006 11.0486 5.07943 10.8206C5.98736 10.4502 7.00686 10.4494 7.91536 10.8184C8.46442 11.0481 9.08194 11.0603 9.63992 10.8527C10.1979 10.6451 10.6536 10.2335 10.9125 9.70328C11.1715 9.17303 11.2138 8.56477 11.0308 8.00453C10.8478 7.4443 10.4534 6.97506 9.92943 6.69405V6.69405Z" fill="#1C1C1C"/>
</svg>
