<svg width="79" height="79" viewBox="0 0 79 79" fill="none" xmlns="http://www.w3.org/2000/svg">
<circle cx="39.5" cy="39.5" r="39.5" fill="#D0F4D3"/>
<path d="M45.9046 46.7248C45.7518 46.7248 45.6015 46.6975 45.4579 46.6433L41.257 45.2332L33.2289 42.4941C31.6987 42.0078 30.5678 41.4594 28.6442 39.8242L28.6173 39.8003L26.2968 37.6494L26.2683 37.6171C25.6833 36.9515 24.702 36.5543 23.6433 36.5543L23.5858 36.5522L22.3252 36.4661V25.5078H40.685C41.9872 25.5078 43.2684 25.9517 44.2926 26.7571L50.2361 31.4337C51.2267 32.2127 51.7949 33.3826 51.7949 34.6441V39.8166L50.6897 39.448C50.6569 39.437 50.6254 39.4265 50.5931 39.416L50.5843 39.4135C50.5683 39.4085 50.5523 39.4039 50.5368 39.3988L50.5267 39.3959C50.4969 39.3871 50.4667 39.3778 50.4364 39.369L50.431 39.3673C50.3945 39.3564 50.3575 39.3463 50.321 39.3363C50.2781 39.3245 50.2382 39.314 50.1979 39.3039L50.1887 39.3014C50.1526 39.2926 50.1169 39.2833 50.0804 39.2754L50.0707 39.2733C50.0312 39.264 49.9909 39.2552 49.951 39.2472L49.9414 39.2451C49.9115 39.2388 49.8809 39.233 49.8502 39.2271L49.8431 39.2258C49.812 39.2195 49.7809 39.2136 49.749 39.2086L49.7369 39.2065C49.7075 39.201 49.6781 39.1964 49.6491 39.1918L49.6126 39.1859C49.5962 39.1834 49.5798 39.1805 49.5634 39.1784L49.5563 39.1775C49.5164 39.1717 49.4773 39.1666 49.4375 39.1616L49.424 39.1599C49.3904 39.1553 49.356 39.1519 49.322 39.1481C49.3094 39.1473 49.2968 39.1456 49.2838 39.1444C49.2598 39.1418 49.2359 39.1397 49.2115 39.1376L49.1431 39.1322C49.1292 39.1305 49.1162 39.1297 49.1053 39.1292L49.0326 39.1246C49.0293 39.1242 49.0259 39.1242 49.0226 39.1242L48.9844 39.1225C48.9256 39.1187 48.863 39.1166 48.8038 39.115C48.7933 39.115 48.7828 39.1145 48.7727 39.1141L48.7589 39.1137C48.7051 39.1124 48.6501 39.1124 48.5972 39.1129C48.5783 39.1129 48.5594 39.1133 48.5409 39.1133C48.5086 39.1141 48.4771 39.115 48.4456 39.1162C48.4204 39.1171 48.4002 39.1179 48.3797 39.1187L48.3112 39.1217C48.2587 39.1238 48.2071 39.1276 48.1554 39.1309L48.1395 39.1322C48.1298 39.133 48.1202 39.1334 48.1101 39.1347L48.0891 39.1368C47.9719 39.1469 47.864 39.1591 47.759 39.1742L47.6843 39.1851C47.6587 39.1889 47.6335 39.1926 47.6079 39.1973L47.5915 39.2002C47.5713 39.2036 47.5516 39.2069 47.5323 39.2107L47.5025 39.2157C47.4852 39.2183 47.468 39.222 47.4508 39.2254L47.4399 39.2275C47.353 39.2439 47.2614 39.2636 47.1598 39.288L47.1527 39.2896C47.1371 39.2934 47.1212 39.2972 47.1052 39.301L46.0172 39.6995V35.4671L43.6446 33.5997C42.9715 33.0706 42.03 33.0693 41.3561 33.5963L40.4217 34.3266C39.6587 34.9233 39.3325 35.9122 39.5915 36.8461C39.7007 37.2396 39.9014 37.6091 40.1719 37.9152C40.4423 38.2201 40.7854 38.4641 41.1625 38.6195L44.6268 40.048C46.1604 40.6808 47.2211 42.0998 47.3954 43.7509C47.4735 44.4916 47.3635 45.2488 47.0779 45.9404C46.881 46.4166 46.4207 46.7248 45.9046 46.7248ZM45.5238 45.3004C45.5238 45.3008 45.5234 45.3013 45.5234 45.3013C45.5234 45.3008 45.5238 45.3004 45.5238 45.3004ZM41.797 43.6426L45.6464 44.9347C45.7325 44.6059 45.7589 44.2636 45.7237 43.9273C45.6145 42.8901 44.9481 41.9986 43.9852 41.6009L40.5208 40.1723C39.909 39.92 39.353 39.5248 38.9129 39.0289C38.4733 38.5321 38.1479 37.9329 37.9711 37.2946C37.5306 35.7039 38.0857 34.0196 39.3854 33.003L40.3193 32.2728C41.6034 31.2679 43.3973 31.27 44.681 32.2786L47.1392 34.2136C47.4928 34.4929 47.6948 34.9094 47.6948 35.3579V37.4878C47.7716 37.4785 47.8506 37.4705 47.932 37.4634C47.9572 37.4609 47.9824 37.4588 48.0076 37.4567L48.0337 37.4546C48.0933 37.4504 48.16 37.4458 48.2306 37.4428C48.247 37.442 48.2642 37.4412 48.281 37.4403L48.302 37.4395C48.331 37.4382 48.3595 37.437 48.3889 37.4361C48.428 37.4349 48.4691 37.4336 48.5103 37.4328H48.5287C48.5447 37.4328 48.5607 37.4328 48.577 37.4323C48.6455 37.4315 48.7152 37.4319 48.7845 37.4332C48.7962 37.4332 48.808 37.4336 48.8197 37.434L48.842 37.4344C48.9142 37.4365 48.9919 37.4391 49.0734 37.4441C49.1003 37.4449 49.1271 37.4462 49.154 37.4483C49.1691 37.4491 49.1842 37.45 49.1998 37.4512C49.2296 37.4529 49.2598 37.455 49.2905 37.4579C49.3052 37.4588 49.3199 37.46 49.335 37.4613L49.3602 37.4634C49.3854 37.4655 49.4102 37.468 49.4354 37.4705H49.4362C49.4417 37.471 49.4475 37.4718 49.453 37.4722L49.4841 37.4756C49.5332 37.4806 49.589 37.4865 49.6478 37.4945C49.6999 37.5008 49.7503 37.5075 49.8019 37.5151C49.8267 37.5184 49.8515 37.5226 49.8759 37.5264L49.9061 37.531C49.9468 37.5373 49.9863 37.544 50.0253 37.5507C50.0556 37.5558 50.0858 37.5612 50.1156 37.5667V34.6432C50.1156 33.9008 49.7814 33.2117 49.1981 32.7531L43.2537 28.0773C42.5247 27.5037 41.6122 27.1875 40.685 27.1875H24.0049V34.8855C25.4015 34.9695 26.6584 35.5376 27.4995 36.4745L29.7452 38.556C31.6134 40.1421 32.5822 40.5267 33.7454 40.8958L33.7626 40.9013L41.797 43.6426ZM47.062 39.3106H47.0615C47.062 39.3106 47.062 39.3106 47.062 39.3106ZM49.2728 39.1427C49.2733 39.1427 49.2733 39.1427 49.2737 39.1427C49.2737 39.1427 49.2733 39.1427 49.2728 39.1427Z" fill="black"/>
<path d="M48.6451 53.4922C44.2174 53.4922 40.6153 49.8901 40.6153 45.4624C40.6153 45.079 40.6426 44.6944 40.6968 44.319L40.8408 43.3225L45.6468 44.935C45.8034 44.3383 45.7615 43.7109 45.5208 43.1327C45.2303 42.4339 44.6848 41.8906 43.9856 41.6017L42.004 40.7837L42.8581 39.8955C43.8941 38.818 45.2025 38.0533 46.6429 37.6838C46.6546 37.6808 46.666 37.6779 46.6773 37.6754C46.6916 37.6716 46.7059 37.6682 46.7201 37.6645L46.7688 37.6523C46.8948 37.6221 47.0111 37.5973 47.1233 37.5759C47.1464 37.5712 47.1703 37.567 47.1938 37.5628L47.219 37.5582C47.2572 37.5511 47.2921 37.5452 47.3257 37.5402C47.363 37.5335 47.4008 37.5276 47.439 37.5221L47.5243 37.5095C47.6629 37.4902 47.801 37.4747 47.9341 37.4633C47.9585 37.4608 47.9833 37.4587 48.008 37.4566L48.0282 37.4549C48.0971 37.4495 48.1668 37.4453 48.2352 37.4419L48.2491 37.4411C48.2659 37.4402 48.2827 37.4394 48.2995 37.439L48.3112 37.4386C48.3385 37.4373 48.3654 37.436 48.3927 37.4356C48.4355 37.4344 48.4783 37.4331 48.5203 37.4323C48.6077 37.4314 48.6959 37.431 48.7841 37.4327C48.7925 37.4327 48.8004 37.4327 48.8088 37.4331L48.8433 37.4335C48.9176 37.4356 48.9978 37.4381 49.0814 37.4436C49.0994 37.4444 49.1171 37.4453 49.1351 37.4465L49.149 37.4474C49.1628 37.4478 49.183 37.449 49.2069 37.4511C49.2409 37.4532 49.2716 37.4553 49.2976 37.4579C49.3115 37.4587 49.3266 37.46 49.3438 37.4621C49.385 37.4654 49.4257 37.4692 49.4668 37.4734L49.4731 37.4738C49.5256 37.4789 49.5815 37.4852 49.6491 37.494C49.6974 37.4999 49.7482 37.5066 49.7998 37.5141C49.8301 37.5183 49.8607 37.523 49.8905 37.5276L49.9057 37.5301C49.9489 37.5364 49.9913 37.5435 50.0333 37.5511C50.0741 37.5578 50.1139 37.5654 50.1543 37.5729L50.1618 37.5742C50.2046 37.5822 50.245 37.5906 50.2849 37.5985L50.2945 37.6006C50.3466 37.6116 50.3987 37.6229 50.4499 37.6351C50.5028 37.6468 50.5565 37.6599 50.6095 37.6733C50.6556 37.6846 50.7018 37.6968 50.7484 37.7094L50.7745 37.7165C50.819 37.7287 50.8639 37.7409 50.9076 37.7543C50.9378 37.7632 50.9681 37.7724 50.9983 37.7812L51.0575 37.7993C51.0672 37.8026 51.0772 37.8056 51.0869 37.8085L51.1625 37.8329C51.1797 37.8387 51.1969 37.8442 51.2146 37.8501L51.2276 37.8543C54.4853 38.962 56.6748 42.0195 56.6748 45.4624C56.6748 49.8901 53.0727 53.4922 48.6451 53.4922ZM42.2963 45.5825C42.3605 49.0288 45.1841 51.8125 48.6451 51.8125C52.1464 51.8125 54.9951 48.9637 54.9951 45.4624C54.9951 42.7409 53.2663 40.3247 50.6922 39.447C50.672 39.4403 50.6519 39.4336 50.6317 39.4273L50.5889 39.413C50.5725 39.408 50.5557 39.4025 50.5389 39.3975L50.5116 39.3891C50.4873 39.3815 50.4625 39.3744 50.4377 39.3673L50.4226 39.3626C50.3928 39.3534 50.3621 39.3454 50.3315 39.337L50.3121 39.332C50.276 39.3223 50.2403 39.3127 50.2046 39.3038L50.1925 39.3009C50.1547 39.2912 50.1169 39.282 50.0791 39.2736L50.0724 39.2719C50.0321 39.2627 49.9913 39.2535 49.9502 39.2446C49.9157 39.2375 49.8838 39.2312 49.8515 39.2249L49.8465 39.2241C49.8141 39.2182 49.7822 39.2119 49.7495 39.2068L49.7259 39.2026C49.7045 39.1984 49.6827 39.1951 49.6608 39.1917L49.6273 39.1867C49.61 39.1837 49.5924 39.1812 49.5748 39.1787L49.5559 39.1762C49.516 39.1703 49.4761 39.1653 49.4366 39.1602C49.3942 39.1548 49.3547 39.1502 49.3153 39.1464L49.2955 39.1443C49.2598 39.1405 49.2245 39.1376 49.1889 39.1346L49.1557 39.1317C49.1389 39.13 49.1229 39.1287 49.1061 39.1279L49.0326 39.1233C49.0242 39.1229 49.0163 39.122 49.0079 39.122L48.9844 39.1208C48.926 39.117 48.8638 39.1149 48.805 39.1132C48.7983 39.1132 48.7912 39.1132 48.7845 39.1128L48.7584 39.1124C48.6849 39.1111 48.6123 39.1111 48.5388 39.1119C48.5069 39.1124 48.4746 39.1136 48.4427 39.1145L48.4271 39.1149C48.4158 39.1149 48.4044 39.1157 48.3935 39.1161L48.3129 39.1199C48.2608 39.1224 48.2079 39.1258 48.1554 39.1296L48.1365 39.1313C48.1277 39.1321 48.1189 39.1325 48.1101 39.1334L48.084 39.1359C47.9782 39.1447 47.8682 39.1569 47.7565 39.1724L47.6914 39.1821C47.6629 39.1863 47.6347 39.1909 47.6062 39.1959L47.5776 39.2005C47.5608 39.2031 47.5444 39.206 47.5276 39.2089L47.4911 39.2157C47.4773 39.2182 47.4638 39.2207 47.4504 39.2232L47.4411 39.2249C47.3542 39.2417 47.2627 39.2614 47.1619 39.2854L47.0452 39.3143C46.322 39.5016 45.6405 39.8157 45.0304 40.2394C47.0515 41.3165 47.9677 43.7802 47.0766 45.9407C46.8818 46.4165 46.4216 46.7247 45.9051 46.7247C45.751 46.7247 45.5998 46.697 45.4558 46.642L42.2963 45.5825ZM45.5238 45.3012C45.5238 45.3016 45.5234 45.302 45.5234 45.3028C45.5234 45.302 45.5234 45.3016 45.5238 45.3012Z" fill="black"/>
<path d="M49.4849 48.3658H47.8052V50.0397H49.4849V48.3658Z" fill="black"/>
<path d="M49.4849 40.8849H47.8052V42.5327H49.4849V40.8849Z" fill="black"/>
<path d="M49.1708 49.2056H48.1193C46.8881 49.2056 45.8862 48.2255 45.8862 47.0212H47.5659C47.5659 47.2996 47.814 47.526 48.1193 47.526H49.1708C49.5412 47.526 49.8427 47.2484 49.8427 46.9074C49.8427 46.7478 49.7768 46.5967 49.6567 46.4808C49.5286 46.3573 49.356 46.2893 49.1712 46.2893H48.1197C46.8234 46.2893 45.7686 45.2584 45.7686 43.9911C45.7686 43.3717 46.0172 42.7909 46.4682 42.3559C46.9108 41.9288 47.4974 41.6932 48.1197 41.6932H49.1712C50.4029 41.6932 51.4048 42.6733 51.4048 43.8777H49.7251C49.7251 43.5993 49.4765 43.3729 49.1712 43.3729H48.1197C47.9346 43.3729 47.7624 43.441 47.6343 43.5644C47.5146 43.6799 47.4483 43.8315 47.4483 43.9911C47.4483 44.332 47.7494 44.6096 48.1197 44.6096H49.1712C49.7936 44.6096 50.3802 44.8448 50.8228 45.2722C51.2738 45.7073 51.5224 46.288 51.5224 46.9078C51.5224 48.1747 50.4675 49.2056 49.1708 49.2056Z" fill="black"/>
</svg>
