<svg width="18" height="18" viewBox="0 0 18 18" fill="none" xmlns="http://www.w3.org/2000/svg">
<path d="M16.4805 3.29577H1.51948C0.677922 3.29577 0 2.56056 0 1.64789C0 0.735211 0.677922 0 1.51948 0H16.4805C17.3221 0 18 0.735211 18 1.64789C18 2.56056 17.3221 3.29577 16.4805 3.29577ZM18 9C18 8.08732 17.3221 7.35211 16.4805 7.35211H1.51948C0.677922 7.35211 0 8.08732 0 9C0 9.91268 0.677922 10.6479 1.51948 10.6479H16.4805C17.3221 10.6479 18 9.91268 18 9ZM18 16.3521C18 15.4394 17.3221 14.7042 16.4805 14.7042H1.51948C0.677922 14.7042 0 15.4394 0 16.3521C0 17.2648 0.677922 18 1.51948 18H16.4805C17.3221 18 18 17.2648 18 16.3521Z" fill="black"/>
</svg>
