<svg width="79" height="79" viewBox="0 0 79 79" fill="none" xmlns="http://www.w3.org/2000/svg">
<circle cx="39.5" cy="39.5" r="39.5" fill="#FFD2DA"/>
<path d="M39.5 44.752C38.4244 44.752 37.373 44.4331 36.4787 43.8355C35.5844 43.238 34.8874 42.3886 34.4758 41.3949C34.0642 40.4012 33.9565 39.3078 34.1663 38.2529C34.3761 37.198 34.8941 36.229 35.6546 35.4684C36.4152 34.7079 37.3842 34.1899 38.4391 33.9801C39.494 33.7703 40.5874 33.878 41.5811 34.2896C42.5748 34.7012 43.4242 35.3982 44.0217 36.2925C44.6193 37.1868 44.9382 38.2382 44.9382 39.3138C44.9366 40.7556 44.3632 42.1379 43.3436 43.1575C42.3241 44.177 40.9418 44.7504 39.5 44.752V44.752ZM39.5 35.2516C38.6966 35.2516 37.9112 35.4899 37.2432 35.9362C36.5751 36.3826 36.0545 37.017 35.747 37.7593C35.4396 38.5016 35.3591 39.3183 35.5159 40.1063C35.6726 40.8943 36.0595 41.6181 36.6276 42.1862C37.1957 42.7544 37.9195 43.1412 38.7075 43.298C39.4955 43.4547 40.3123 43.3743 41.0546 43.0668C41.7968 42.7594 42.4313 42.2387 42.8776 41.5707C43.324 40.9026 43.5622 40.1173 43.5622 39.3138C43.561 38.2368 43.1326 37.2043 42.371 36.4428C41.6095 35.6812 40.577 35.2529 39.5 35.2516V35.2516ZM34.8053 56.8337C34.6228 56.8337 34.4478 56.7613 34.3188 56.6322C34.1898 56.5032 34.1173 56.3282 34.1173 56.1457V53.6595C34.1173 53.477 34.1898 53.302 34.3188 53.173C34.4478 53.044 34.6228 52.9715 34.8053 52.9715C34.9877 52.9715 35.1627 53.044 35.2918 53.173C35.4208 53.302 35.4933 53.477 35.4933 53.6595V56.1457C35.4933 56.3282 35.4208 56.5032 35.2918 56.6322C35.1627 56.7613 34.9877 56.8337 34.8053 56.8337ZM44.1947 56.8337C44.0123 56.8337 43.8373 56.7613 43.7083 56.6322C43.5792 56.5032 43.5067 56.3282 43.5067 56.1457V53.6595C43.5067 53.477 43.5792 53.302 43.7083 53.173C43.8373 53.044 44.0123 52.9715 44.1947 52.9715C44.3772 52.9715 44.5522 53.044 44.6812 53.173C44.8103 53.302 44.8827 53.477 44.8827 53.6595V56.1457C44.8827 56.3282 44.8103 56.5032 44.6812 56.6322C44.5522 56.7613 44.3772 56.8337 44.1947 56.8337Z" fill="black"/>
<path d="M47.47 57.388H31.5299C31.3475 57.388 31.1725 57.3155 31.0435 57.1865C30.9144 57.0575 30.8419 56.8825 30.8419 56.7V52.3394C30.8419 48.782 33.7363 45.8894 37.2919 45.8894H41.7063C45.2637 45.8894 48.1563 48.7833 48.1563 52.3394V56.7C48.1563 56.8822 48.0841 57.0569 47.9554 57.1859C47.8268 57.3149 47.6522 57.3876 47.47 57.388V57.388ZM32.2179 56.012H46.782V52.3394C46.7802 50.9943 46.2451 49.7047 45.2939 48.7536C44.3427 47.8024 43.0532 47.2672 41.708 47.2654H37.2937C35.9485 47.2672 34.659 47.8024 33.7078 48.7536C32.7567 49.7047 32.2215 50.9943 32.2197 52.3394L32.2179 56.012Z" fill="black"/>
<path d="M37.0636 47.2693C36.946 47.2692 36.8304 47.2389 36.7278 47.1814C36.6252 47.1239 36.5391 47.0411 36.4776 46.9408C36.4161 46.8405 36.3814 46.7262 36.3767 46.6086C36.3721 46.4911 36.3976 46.3744 36.4509 46.2695C37.2343 44.7284 36.561 43.8688 36.5322 43.8331C36.5373 43.8396 36.5403 43.8426 36.5403 43.8426L37.5749 42.9353C37.6295 42.9976 38.8993 44.4897 37.6777 46.8913C37.6203 47.0049 37.5325 47.1004 37.4241 47.1672C37.3157 47.2339 37.1909 47.2692 37.0636 47.2693ZM41.936 47.2693C41.8089 47.2693 41.6843 47.2341 41.5759 47.1676C41.4676 47.1011 41.3799 47.0059 41.3224 46.8926C40.1007 44.4897 41.3705 42.9976 41.4251 42.9366L42.4597 43.843C42.4597 43.843 42.4627 43.84 42.4679 43.8336C42.4391 43.8693 41.7657 44.7288 42.5491 46.2695C42.6025 46.3744 42.6282 46.4913 42.6235 46.6089C42.6189 46.7265 42.5841 46.8409 42.5226 46.9413C42.4611 47.0416 42.3748 47.1245 42.2721 47.182C42.1694 47.2395 42.0537 47.2697 41.936 47.2697V47.2693ZM28.1515 40.256C27.5269 40.256 26.9165 40.0708 26.3972 39.7238C25.8779 39.3768 25.4732 38.8837 25.2343 38.3067C24.9953 37.7297 24.9328 37.0948 25.0547 36.4823C25.1765 35.8698 25.4773 35.3072 25.9189 34.8656C26.3605 34.4241 26.9232 34.1234 27.5357 34.0016C28.1482 33.8798 28.7831 33.9424 29.3601 34.1815C29.937 34.4205 30.4301 34.8253 30.777 35.3446C31.1239 35.8639 31.309 36.4744 31.3089 37.0989C31.308 37.936 30.9751 38.7385 30.3831 39.3304C29.7911 39.9223 28.9886 40.2552 28.1515 40.256V40.256ZM28.1515 35.3174C27.7991 35.3174 27.4547 35.4219 27.1617 35.6176C26.8687 35.8134 26.6404 36.0916 26.5056 36.4172C26.3707 36.7427 26.3355 37.1009 26.4042 37.4465C26.4729 37.792 26.6426 38.1095 26.8917 38.3586C27.1409 38.6078 27.4583 38.7774 27.8039 38.8462C28.1495 38.9149 28.5077 38.8796 28.8332 38.7448C29.1587 38.61 29.437 38.3816 29.6327 38.0886C29.8285 37.7957 29.9329 37.4512 29.9329 37.0989C29.9325 36.6266 29.7446 36.1737 29.4107 35.8397C29.0767 35.5057 28.6238 35.3179 28.1515 35.3174ZM32.2945 47.2503H24.0088C23.8264 47.2503 23.6514 47.1779 23.5223 47.0488C23.3933 46.9198 23.3208 46.7448 23.3208 46.5623V45.4443C23.3328 44.171 23.8471 42.9539 24.7518 42.0578C25.6564 41.1616 26.8783 40.6589 28.1517 40.6589C29.425 40.6589 30.6469 41.1616 31.5516 42.0578C32.4562 42.9539 32.9705 44.171 32.9825 45.4443V46.5623C32.9825 46.7448 32.91 46.9198 32.781 47.0488C32.652 47.1779 32.477 47.2503 32.2945 47.2503ZM24.6968 45.8743H31.6065V45.4443C31.5964 44.5347 31.2279 43.6658 30.5811 43.0262C29.9343 42.3866 29.0613 42.0278 28.1517 42.0278C27.242 42.0278 26.369 42.3866 25.7222 43.0262C25.0754 43.6658 24.707 44.5347 24.6968 45.4443V45.8743ZM50.8486 40.256C50.224 40.2561 49.6135 40.0709 49.0942 39.724C48.5749 39.3771 48.1701 38.884 47.9311 38.307C47.692 37.73 47.6295 37.0951 47.7513 36.4826C47.8731 35.8701 48.1738 35.3074 48.6155 34.8658C49.0571 34.4242 49.6197 34.1235 50.2323 34.0016C50.8448 33.8798 51.4797 33.9424 52.0567 34.1814C52.6336 34.4205 53.1268 34.8252 53.4737 35.3445C53.8206 35.8638 54.0057 36.4744 54.0056 37.0989C54.0047 37.9359 53.6718 38.7384 53.0799 39.3303C52.4881 39.9221 51.6856 40.2551 50.8486 40.256V40.256ZM50.8486 35.3174C50.4962 35.3173 50.1517 35.4217 49.8587 35.6174C49.5657 35.8131 49.3373 36.0913 49.2024 36.4169C49.0675 36.7424 49.0321 37.1006 49.1008 37.4462C49.1695 37.7918 49.3392 38.1093 49.5883 38.3585C49.8374 38.6076 50.1548 38.7774 50.5004 38.8461C50.846 38.9149 51.2042 38.8797 51.5298 38.7448C51.8553 38.61 52.1336 38.3817 52.3294 38.0887C52.5251 37.7957 52.6296 37.4513 52.6296 37.0989C52.6291 36.6267 52.4412 36.1739 52.1074 35.84C51.7735 35.506 51.3208 35.3181 50.8486 35.3174V35.3174ZM54.9912 47.2503H46.7055C46.5231 47.2503 46.3481 47.1779 46.219 47.0488C46.09 46.9198 46.0175 46.7448 46.0175 46.5623V45.4443C46.0295 44.171 46.5438 42.9539 47.4484 42.0578C48.3531 41.1616 49.575 40.6589 50.8484 40.6589C52.1217 40.6589 53.3436 41.1616 54.2483 42.0578C55.1529 42.9539 55.6672 44.171 55.6792 45.4443V46.5623C55.6792 46.7448 55.6067 46.9198 55.4777 47.0488C55.3487 47.1779 55.1737 47.2503 54.9912 47.2503ZM47.3935 45.8743H54.3032V45.4443C54.293 44.5347 53.9246 43.6658 53.2778 43.0262C52.631 42.3866 51.758 42.0278 50.8484 42.0278C49.9387 42.0278 49.0657 42.3866 48.4189 43.0262C47.7721 43.6658 47.4037 44.5347 47.3935 45.4443V45.8743ZM42.7345 32.943C42.623 32.943 42.5132 32.916 42.4146 32.8643L39.5 31.33L36.5855 32.8625C36.472 32.9222 36.344 32.9489 36.2161 32.9398C36.0882 32.9306 35.9654 32.8859 35.8616 32.8106C35.7578 32.7353 35.6771 32.6326 35.6285 32.5139C35.58 32.3952 35.5656 32.2653 35.587 32.1389L36.146 28.8936L33.7883 26.5953C33.6964 26.5058 33.6314 26.3924 33.6006 26.2679C33.5697 26.1434 33.5743 26.0127 33.6138 25.8907C33.6533 25.7686 33.7261 25.66 33.824 25.5772C33.922 25.4944 34.0411 25.4405 34.168 25.4218L37.4261 24.9488L38.8834 21.996C38.9402 21.8808 39.0281 21.7839 39.1371 21.7161C39.2462 21.6482 39.372 21.6123 39.5004 21.6123C39.6289 21.6123 39.7547 21.6482 39.8638 21.7161C39.9728 21.7839 40.0607 21.8808 40.1175 21.996L41.5748 24.9488L44.8329 25.4218C44.9599 25.4403 45.0793 25.4939 45.1774 25.5766C45.2756 25.6594 45.3486 25.7679 45.3883 25.89C45.428 26.0121 45.4327 26.1429 45.402 26.2675C45.3712 26.3921 45.3062 26.5057 45.2143 26.5953L42.8566 28.8936L43.413 32.1389C43.4299 32.2376 43.4251 32.3388 43.3988 32.4355C43.3725 32.5322 43.3254 32.6219 43.2608 32.6985C43.1962 32.7751 43.1157 32.8366 43.0249 32.8788C42.934 32.9211 42.8351 32.943 42.7349 32.943H42.7345ZM39.5 29.868C39.6116 29.868 39.7215 29.895 39.8204 29.9467L41.822 30.9976L41.4402 28.7698C41.4212 28.6598 41.4294 28.5469 41.4638 28.4407C41.4983 28.3346 41.5581 28.2384 41.638 28.1605L43.2565 26.5828L41.0205 26.2577C40.9105 26.2414 40.8061 26.1986 40.7162 26.1331C40.6263 26.0676 40.5537 25.9812 40.5045 25.8815L39.5 23.8545L38.4998 25.8815C38.4502 25.9812 38.3772 26.0674 38.2869 26.1326C38.1967 26.1978 38.0919 26.2402 37.9817 26.256L35.7457 26.5811L37.3642 28.1588C37.4441 28.2367 37.5039 28.3329 37.5383 28.439C37.5728 28.5452 37.5809 28.6581 37.562 28.7681L37.178 30.9976L39.1784 29.9454C39.2777 29.8939 39.3881 29.8674 39.5 29.868Z" fill="black"/>
</svg>
